<?xml version="1.0" encoding="UTF-8"?>
<svg id="logo" width="800" height="200" version="1.1" viewBox="0 0 200 50" fill="currentColor" stroke="currentColor" xmlns="http://www.w3.org/2000/svg">
 <path id="l" class="logo-hidden-letter" d="m45.302 12.5v25h23.659v-5.7692h-15.238v-19.231z" fill="inherit" stroke="none" stroke-width=".26888"/>
 <path id="e" class="logo-hidden-letter" d="m45.302 12.5v25h25.745v-5.7692h-17.324v-4.1667h15.639v-5.4487h-15.639v-3.8462h17.243v-5.7692z" fill="inherit" stroke="none" stroke-width=".26888"/>
 <path id="i2" class="logo-hidden-letter" d="m45.302 37.5h8.4212v-25h-8.4212z" fill="inherit" stroke="none" stroke-width=".26888"/>
 <path id="i" class="logo-hidden-letter" d="m45.302 37.5h8.4212v-25h-8.4212z" fill="inherit" stroke="none" stroke-width=".26888"/>
 <path id="r" class="logo-hidden-letter" d="m63.187 12.5h-17.885v25h8.4212v-8.8141h6.2557c4.371 0 4.8121 0.28846 4.8121 3.0449v5.7692h8.8222v-6.1538c0-3.2051-2.1253-4.6795-6.2958-5.0321 4.371-0.48077 6.2958-2.4359 6.2958-6.5705 0-5.8013-2.0852-7.2436-10.426-7.2436zm-9.4638 11.058v-5.609h7.2984c3.7695 0 4.1705 0.28846 4.1705 2.7564 0 2.5641-0.40101 2.8526-4.1705 2.8526z" fill="inherit" stroke="none" stroke-width=".26888"/>
 <path id="y" class="logo-hidden-letter" d="m75.498 12.5h-8.9425l-5.6943 10.288h-0.24061l-5.8547-10.288h-9.4638l9.7044 15.385h1.4837v9.6154h8.4212v-9.6154h1.203z" fill="inherit" stroke="none" stroke-width=".26888"/>
 <path id="x" d="m23.127 12.5h-9.8648l8.0603 12.436-8.8222 12.564h9.5841l5.9349-9.1667h0.32081l6.2557 9.1667h10.306l-9.4638-12.564 8.7019-12.436h-9.6643l-5.7344 9.0385h-0.24061z" fill="inherit" stroke="none" stroke-width=".26888"/>
 <path id="corner-bottom-right" d="m54.947 35v12.548h-12.548 0.0959" fill="none" stroke="inherit" stroke-width="4.9048"/>
 <path id="corner-bottom-left" d="m15 47.547h-12.548v-12.548 0.09583" fill="none" stroke="inherit" stroke-width="4.9048"/>
 <path id="corner-top-right" d="m54.947 15v-12.548h-12.548 0.0959" fill="none" stroke="inherit" stroke-width="4.9048"/>
 <path id="corner-top-left" d="m15 2.4524h-12.548v12.548-0.09583" fill="none" stroke="inherit" stroke-width="4.9048"/>
</svg>